<mxfile host="app.diagrams.net" agent="Mozilla/5.0 (Windows NT 10.0; Win64; x64) AppleWebKit/537.36 (KHTML, like Gecko) Chrome/131.0.0.0 Safari/537.36" version="25.0.3">
  <diagram name="第 1 页" id="3SPyTkVfWEz4AzFqibmd">
    <mxGraphModel dx="1969" dy="868" grid="1" gridSize="10" guides="1" tooltips="1" connect="1" arrows="1" fold="1" page="1" pageScale="1" pageWidth="827" pageHeight="1169" math="0" shadow="0">
      <root>
        <mxCell id="0" />
        <mxCell id="1" parent="0" />
        <mxCell id="lnP5VgyoJC5XEVZ1Q4jd-1" value="&lt;font style=&quot;font-size: 18px;&quot;&gt;展现层&lt;/font&gt;" style="shape=offPageConnector;whiteSpace=wrap;html=1;direction=south;" vertex="1" parent="1">
          <mxGeometry x="40" y="300" width="150" height="120" as="geometry" />
        </mxCell>
        <mxCell id="lnP5VgyoJC5XEVZ1Q4jd-2" value="" style="rounded=0;whiteSpace=wrap;html=1;" vertex="1" parent="1">
          <mxGeometry x="200" y="300" width="610" height="120" as="geometry" />
        </mxCell>
        <mxCell id="lnP5VgyoJC5XEVZ1Q4jd-3" value="&lt;font style=&quot;font-size: 18px;&quot;&gt;通讯层&lt;/font&gt;" style="shape=offPageConnector;whiteSpace=wrap;html=1;direction=south;" vertex="1" parent="1">
          <mxGeometry x="40" y="430" width="150" height="140" as="geometry" />
        </mxCell>
        <mxCell id="lnP5VgyoJC5XEVZ1Q4jd-4" value="" style="rounded=0;whiteSpace=wrap;html=1;" vertex="1" parent="1">
          <mxGeometry x="200" y="430" width="610" height="140" as="geometry" />
        </mxCell>
        <mxCell id="lnP5VgyoJC5XEVZ1Q4jd-5" value="&lt;font style=&quot;font-size: 18px;&quot;&gt;服务层&lt;/font&gt;" style="shape=offPageConnector;whiteSpace=wrap;html=1;direction=south;" vertex="1" parent="1">
          <mxGeometry x="40" y="585" width="150" height="345" as="geometry" />
        </mxCell>
        <mxCell id="lnP5VgyoJC5XEVZ1Q4jd-6" value="" style="rounded=0;whiteSpace=wrap;html=1;" vertex="1" parent="1">
          <mxGeometry x="200" y="585" width="610" height="345" as="geometry" />
        </mxCell>
        <mxCell id="lnP5VgyoJC5XEVZ1Q4jd-7" value="&lt;font style=&quot;font-size: 18px;&quot;&gt;数据层&lt;/font&gt;" style="shape=offPageConnector;whiteSpace=wrap;html=1;direction=south;" vertex="1" parent="1">
          <mxGeometry x="40" y="950" width="150" height="130" as="geometry" />
        </mxCell>
        <mxCell id="lnP5VgyoJC5XEVZ1Q4jd-8" value="" style="rounded=0;whiteSpace=wrap;html=1;" vertex="1" parent="1">
          <mxGeometry x="200" y="950" width="610" height="130" as="geometry" />
        </mxCell>
        <mxCell id="lnP5VgyoJC5XEVZ1Q4jd-10" value="Web&lt;div&gt;（Vue, Axios）&lt;/div&gt;" style="rounded=0;whiteSpace=wrap;html=1;" vertex="1" parent="1">
          <mxGeometry x="255" y="330" width="200" height="70" as="geometry" />
        </mxCell>
        <mxCell id="lnP5VgyoJC5XEVZ1Q4jd-11" value="rpc interface" style="rounded=0;whiteSpace=wrap;html=1;" vertex="1" parent="1">
          <mxGeometry x="540" y="330" width="200" height="70" as="geometry" />
        </mxCell>
        <mxCell id="lnP5VgyoJC5XEVZ1Q4jd-12" value="http/https" style="rounded=0;whiteSpace=wrap;html=1;" vertex="1" parent="1">
          <mxGeometry x="300" y="510" width="140" height="40" as="geometry" />
        </mxCell>
        <mxCell id="lnP5VgyoJC5XEVZ1Q4jd-15" value="gRPC &amp;amp; ProtoBuf" style="rounded=0;whiteSpace=wrap;html=1;" vertex="1" parent="1">
          <mxGeometry x="510" y="510" width="140" height="40" as="geometry" />
        </mxCell>
        <mxCell id="lnP5VgyoJC5XEVZ1Q4jd-16" value="" style="rounded=0;whiteSpace=wrap;html=1;" vertex="1" parent="1">
          <mxGeometry x="220" y="610" width="170" height="210" as="geometry" />
        </mxCell>
        <mxCell id="lnP5VgyoJC5XEVZ1Q4jd-17" value="monitor" style="rounded=0;whiteSpace=wrap;html=1;" vertex="1" parent="1">
          <mxGeometry x="250" y="630" width="115" height="40" as="geometry" />
        </mxCell>
        <mxCell id="lnP5VgyoJC5XEVZ1Q4jd-18" value="Prometheus" style="rounded=0;whiteSpace=wrap;html=1;" vertex="1" parent="1">
          <mxGeometry x="247.5" y="750" width="122.5" height="50" as="geometry" />
        </mxCell>
        <mxCell id="lnP5VgyoJC5XEVZ1Q4jd-19" value="Granfana" style="rounded=0;whiteSpace=wrap;html=1;" vertex="1" parent="1">
          <mxGeometry x="247.5" y="683" width="120" height="50" as="geometry" />
        </mxCell>
        <mxCell id="lnP5VgyoJC5XEVZ1Q4jd-24" value="MySQL" style="rounded=0;whiteSpace=wrap;html=1;" vertex="1" parent="1">
          <mxGeometry x="600" y="980" width="120" height="60" as="geometry" />
        </mxCell>
        <mxCell id="lnP5VgyoJC5XEVZ1Q4jd-25" value="Redis" style="rounded=0;whiteSpace=wrap;html=1;" vertex="1" parent="1">
          <mxGeometry x="300" y="980" width="120" height="60" as="geometry" />
        </mxCell>
        <mxCell id="lnP5VgyoJC5XEVZ1Q4jd-26" value="" style="rounded=0;whiteSpace=wrap;html=1;" vertex="1" parent="1">
          <mxGeometry x="640" y="610" width="150" height="210" as="geometry" />
        </mxCell>
        <mxCell id="lnP5VgyoJC5XEVZ1Q4jd-27" value="ipconfig" style="rounded=0;whiteSpace=wrap;html=1;" vertex="1" parent="1">
          <mxGeometry x="655" y="643" width="120" height="40" as="geometry" />
        </mxCell>
        <mxCell id="lnP5VgyoJC5XEVZ1Q4jd-28" value="etcd" style="rounded=0;whiteSpace=wrap;html=1;" vertex="1" parent="1">
          <mxGeometry x="655" y="733" width="120" height="45" as="geometry" />
        </mxCell>
        <mxCell id="lnP5VgyoJC5XEVZ1Q4jd-29" value="" style="rounded=0;whiteSpace=wrap;html=1;" vertex="1" parent="1">
          <mxGeometry x="223.5" y="860" width="380" height="60" as="geometry" />
        </mxCell>
        <mxCell id="lnP5VgyoJC5XEVZ1Q4jd-30" value="LLM SPI" style="rounded=0;whiteSpace=wrap;html=1;" vertex="1" parent="1">
          <mxGeometry x="240" y="869.5" width="99.5" height="42" as="geometry" />
        </mxCell>
        <mxCell id="lnP5VgyoJC5XEVZ1Q4jd-31" value="chatGPT" style="rounded=0;whiteSpace=wrap;html=1;" vertex="1" parent="1">
          <mxGeometry x="356" y="870.5" width="115" height="40" as="geometry" />
        </mxCell>
        <mxCell id="lnP5VgyoJC5XEVZ1Q4jd-32" value="qwen" style="rounded=0;whiteSpace=wrap;html=1;" vertex="1" parent="1">
          <mxGeometry x="480" y="870" width="115" height="40" as="geometry" />
        </mxCell>
        <mxCell id="lnP5VgyoJC5XEVZ1Q4jd-33" value="RabbitMQ" style="rounded=0;whiteSpace=wrap;html=1;" vertex="1" parent="1">
          <mxGeometry x="640" y="861" width="140" height="59" as="geometry" />
        </mxCell>
        <mxCell id="lnP5VgyoJC5XEVZ1Q4jd-37" value="" style="rounded=0;whiteSpace=wrap;html=1;" vertex="1" parent="1">
          <mxGeometry x="400" y="610" width="230" height="210" as="geometry" />
        </mxCell>
        <mxCell id="lnP5VgyoJC5XEVZ1Q4jd-38" value="Service Application" style="rounded=0;whiteSpace=wrap;html=1;" vertex="1" parent="1">
          <mxGeometry x="455" y="620" width="115" height="50" as="geometry" />
        </mxCell>
        <mxCell id="lnP5VgyoJC5XEVZ1Q4jd-39" value="Service1" style="rounded=0;whiteSpace=wrap;html=1;" vertex="1" parent="1">
          <mxGeometry x="414" y="685" width="96" height="45" as="geometry" />
        </mxCell>
        <mxCell id="lnP5VgyoJC5XEVZ1Q4jd-40" value="Service2" style="rounded=0;whiteSpace=wrap;html=1;" vertex="1" parent="1">
          <mxGeometry x="520" y="685" width="96" height="45" as="geometry" />
        </mxCell>
        <mxCell id="lnP5VgyoJC5XEVZ1Q4jd-41" value="Service3" style="rounded=0;whiteSpace=wrap;html=1;" vertex="1" parent="1">
          <mxGeometry x="414" y="750" width="96" height="45" as="geometry" />
        </mxCell>
        <mxCell id="lnP5VgyoJC5XEVZ1Q4jd-42" value="Service3" style="rounded=0;whiteSpace=wrap;html=1;" vertex="1" parent="1">
          <mxGeometry x="520" y="750" width="96" height="45" as="geometry" />
        </mxCell>
        <mxCell id="lnP5VgyoJC5XEVZ1Q4jd-43" value="Nginx" style="rounded=0;whiteSpace=wrap;html=1;" vertex="1" parent="1">
          <mxGeometry x="410" y="444" width="140" height="50" as="geometry" />
        </mxCell>
      </root>
    </mxGraphModel>
  </diagram>
</mxfile>
